HIERARCHY
ROOT Hips
{
	OFFSET	0.00	0.00	0.00
	CHANNELS 6 Xposition Yposition Zposition Zrotation Xrotation Yrotation
	JOINT Spine
	{
		OFFSET	 0.00	0.01	 0.00
		CHANNELS 3 Zrotation Xrotation Yrotation
		JOINT Spine1
		{
			OFFSET	 0.00	 2.45913012437421	 0.00
			CHANNELS 3 Zrotation Xrotation Yrotation
            JOINT Neck
            {
                OFFSET	 0.00	 2.48462964506057	 0.00
                CHANNELS 3 Zrotation Xrotation Yrotation
                JOINT Head
                {
                    OFFSET	 0.00	 0.927524780924562	 0.00
                    CHANNELS 3 Zrotation Xrotation Yrotation
                    End Site 
                    {
                        OFFSET	 0.00	 1.14999962169752	 0.00
                    }
                }
            }
			JOINT LeftShoulder
			{
				OFFSET	 0.00	 2.48462964506057	 0.00
				CHANNELS 3 Zrotation Xrotation Yrotation
				JOINT LeftUpArm
				{
					OFFSET	 0.00	 1.24881979654096	 0.00
					CHANNELS 3 Zrotation Xrotation Yrotation
					JOINT LeftForeArm
					{
						OFFSET	 0.00	2.59758046908119	 0.00
						CHANNELS 3 Zrotation Xrotation Yrotation
						JOINT LeftHand
						{
							OFFSET	 0.00	2.45542024364365	 0.00
							CHANNELS 3 Zrotation Xrotation Yrotation
							JOINT LeftHandThumb 
							{
								OFFSET	 0.00	0.00	 0.00
								CHANNELS 3 Zrotation Xrotation Yrotation
								End Site
								{
									OFFSET	 0.00	0.00	1.00000003353624
								}
							}
							JOINT L_Wrist_End 
							{
								OFFSET	 0.00	0.99999967115358	 0.00
								CHANNELS 3 Zrotation Xrotation Yrotation
								End Site 
								{
									OFFSET	 0.00	 0.00	 0.00
								}
							}
						}
					}
				}
			}
			JOINT RightShoulder
			{
				OFFSET	 0.00	 2.48462964506057	 0.00
				CHANNELS 3 Zrotation Xrotation Yrotation
				JOINT RightUpArm
				{
					OFFSET	 0.00	 1.24881979654096	 0.00
					CHANNELS 3 Zrotation Xrotation Yrotation
					JOINT RightForeArm
					{
						OFFSET	 0.00	2.59758046908119	 0.00
						CHANNELS 3 Zrotation Xrotation Yrotation
						JOINT RightHand
						{
							OFFSET	 0.00	2.45542024364365	 0.00
							CHANNELS 3 Zrotation Xrotation Yrotation
							JOINT RightHandThumb 
							{
								OFFSET	 0.00	0.00	 0.00
								CHANNELS 3 Zrotation Xrotation Yrotation
								End Site
								{
									OFFSET	 0.00	0.00	1.00000003353624
								}
							}
							JOINT R_Wrist_End 
							{
								OFFSET	 0.00	0.99999967115358	 0.00
								CHANNELS 3 Zrotation Xrotation Yrotation
								End Site 
								{
									OFFSET	 0.00	 0.00	 0.00
								}
							}
						}
					}
				}
			}
		}
	}
	JOINT LeftUpLeg
	{
		OFFSET	 1.2719394002717	 0.00	 0.00
		CHANNELS 3 Zrotation Xrotation Yrotation
		JOINT LeftLowLeg
		{
			OFFSET	 0.00	-4.3429100912261	 0.00
			CHANNELS 3 Zrotation Xrotation Yrotation
			JOINT LeftFoot
			{
				OFFSET	 0.00	-4.48767017425826	 0.00
				CHANNELS 3 Zrotation Xrotation Yrotation
				JOINT LeftToeBase
                {
                    OFFSET	 0.00	0.00	 1.51507020887566
                    CHANNELS 3 Zrotation Xrotation Yrotation
                    End Site 
                    {
                        OFFSET	 0.00	0.00	 0.75000010571191
                    }
                }
			}
		}
	}
	JOINT RightUpLeg
	{
		OFFSET	 -1.2719393604653	 0.00	 0.00
		CHANNELS 3 Zrotation Xrotation Yrotation
		JOINT RightLowLeg
		{
			OFFSET	 0.00	-4.3429100912261	 0.00
			CHANNELS 3 Zrotation Xrotation Yrotation
			JOINT RightFoot
			{
				OFFSET	 0.00	-4.48767017425826	 0.00
				CHANNELS 3 Zrotation Xrotation Yrotation
				JOINT RightToeBase
                {
                    OFFSET	 0.00	0.00	 1.51507020887566
                    CHANNELS 3 Zrotation Xrotation Yrotation
                    End Site 
                    {
                        OFFSET	 0.00	0.00	 0.749999965609858
                    }
                }   
			}
		}
	}
}
MOTION 
Frames:	15 
Frame Time: 0.02 
 -4.003680114746094 -0.6525340270996094 9.266510009765625 138.504 85.707 1300.11 3.1117 -22.1573 2.11208 -6.94537 17.1348 4.03095 21.8609 58.0641 348.988 -50.6804 -80.3723 -402.379 -116.8655 -2.96354 367.01 -44.8312 7.27057 21.4766 0.0 20.1271 0.0 4.94333 -17.5377 -10.7672 0.0 0.0 0.0 0.0 0.0 0.0 121.706604 -6.3718 -362.713 47.1835 2.54372 -12.3242 0.0 20.002 0.0 6.11625 -9.03684 20.9796 0.0 0.0 0.0 0.0 0.0 0.0 -3.38359 -4.88369 -12.6618 0.0 15.8956 0.0 -16.9267 -8.071501 10.4878 0.0 -15.699063 0.0 3.56637 -5.89239 16.4067 0.0 21.027 0.0 31.2833 -14.901899 -5.93709 0.0 -13.15277 0.0 
  -4.002300109863281 -0.6493879699707031 9.266300048828125 137.725 85.7637 1300.79 3.10441 -22.071 2.10384 -6.93148 17.1841 4.03788 21.6343 57.9459 349.206 -50.8315 -80.3664 -402.515 -116.8918 -3.01455 366.951 -44.842 7.21673 21.2811 0.0 20.2512 0.0 5.05668 -17.3695 -11.1661 0.0 0.0 0.0 0.0 0.0 0.0 121.7274 -6.3949 -362.767 47.1506 2.5579 -12.2655 0.0 20.14 0.0 5.98556 -8.9346 21.1548 0.0 0.0 0.0 0.0 0.0 0.0 -3.3989 -4.82968 -12.5981 0.0 15.9303 0.0 -16.9028 -8.0882 10.529 0.0 -15.7020035 0.0 3.5817 -5.87276 16.56 0.0 21.0981 0.0 31.5397 -14.9203 -5.86074 0.0 -13.24988 0.0 
  -4.000700073242188 -0.6433940124511719 9.266329956054687 137.106 85.7954 1301.28 3.09868 -21.9043 2.10789 -6.90693 17.1544 4.0369 21.212 57.7015 349.642 -51.2715 -80.4189 -402.979 -116.9213 -3.05332 366.906 -44.8727 7.14515 21.0298 0.0 20.3455 0.0 5.13192 -17.3726 -11.0049 0.0 0.0 0.0 0.0 0.0 0.0 121.7246 -6.40151 -362.725 47.1663 2.48758 -12.125 0.0 20.2122 0.0 5.88734 -8.78686 21.1627 0.0 0.0 0.0 0.0 0.0 0.0 -3.41705 -4.81226 -12.4997 0.0 15.9537 0.0 -16.8813 -8.083799 10.5676 0.0 -15.70472 0.0 3.59017 -5.9266 16.7029 0.0 21.2282 0.0 31.317 -14.938 -5.9783 0.0 -13.11294 0.0 
  -3.9992001342773436 -0.6376720046997071 9.266500244140625 137.494 85.7337 1300.8 3.0686 -21.8394 2.07681 -6.86067 17.1174 4.03344 20.6427 57.3525 350.243 -51.8165 -80.5042 -403.546 -116.9229 -3.0976 366.961 -44.9376 7.14746 20.802 0.0 20.3928 0.0 5.00843 -17.3929 -11.5433 0.0 0.0 0.0 0.0 0.0 0.0 121.6978 -6.38911 -362.74 47.194 2.4338 -11.9802 0.0 20.2937 0.0 5.996 -9.03391 21.4172 0.0 0.0 0.0 0.0 0.0 0.0 -3.44003 -4.89695 -12.4552 0.0 15.9375 0.0 -16.8851 -8.0735 10.6118 0.0 -15.687301 0.0 3.58416 -6.07575 16.8017 0.0 21.304 0.0 31.5461 -14.914301 -5.86712 0.0 -13.24782 0.0 
  -3.9972000122070312 -0.630556983947754 9.267100219726563 138.264 85.6643 1299.92 3.09025 -21.7269 2.11452 -6.83033 16.9918 4.02876 20.3153 56.9605 350.535 -52.4058 -80.6024 -404.109 -116.9235 -3.0365 367.026 -45.0012 7.07098 20.5893 0.0 20.3618 0.0 5.00492 -17.4632 -11.397 0.0 0.0 0.0 0.0 0.0 0.0 121.666 -6.3797 -362.756 47.2645 2.3504 -11.8336 0.0 20.2111 0.0 5.95138 -8.87698 21.3281 0.0 0.0 0.0 0.0 0.0 0.0 -3.43936 -5.00647 -12.3445 0.0 15.8997 0.0 -16.8762 -8.033899 10.6268 0.0 -15.692921 0.0 3.56726 -6.24255 16.7827 0.0 21.3246 0.0 31.6132 -14.818199 -5.74012 0.0 -13.2523 0.0 
  -3.9952899169921876 -0.6246020126342774 9.2675 138.988 85.6075 1299.14 3.11333 -21.6515 2.1184 -6.81997 16.9225 3.99006 19.8973 56.6864 350.992 -53.0852 -80.7103 -404.83 -116.9021 -3.03831 367.063 -45.087 7.08909 20.395 0.0 20.2507 0.0 4.82006 -17.5006 -11.9976 0.0 0.0 0.0 0.0 0.0 0.0 121.6811 -6.36871 -362.801 47.2434 2.35896 -11.7547 0.0 20.1805 0.0 6.16141 -9.09327 21.5847 0.0 0.0 0.0 0.0 0.0 0.0 -3.43827 -5.11013 -12.2942 0.0 15.8805 0.0 -16.8979 -8.0179 10.6269 0.0 -15.694963 0.0 3.56268 -6.37751 16.7955 0.0 21.3414 0.0 31.5751 -14.757299 -5.735 0.0 -13.27482 0.0 
  -3.99302001953125 -0.6184550094604492 9.267050170898438 139.948 85.4828 1298.19 3.14814 -21.23 2.12807 -6.9121 16.1335 3.72032 19.4816 56.8864 351.652 -55.2012 -80.9951 -406.897 -116.9157 -3.27611 367.387 -45.0235 7.10027 20.1056 0.0 20.0904 0.0 4.64299 -17.5485 -12.4542 0.0 0.0 0.0 0.0 0.0 0.0 121.879 -6.38429 -363.275 47.0565 2.4013 -11.6297 0.0 20.0928 0.0 6.34039 -9.10823 22.1168 0.0 0.0 0.0 0.0 0.0 0.0 -3.47175 -5.28619 -12.3074 0.0 15.8627 0.0 -16.8558 -7.9855995 10.6586 0.0 -15.705389 0.0 3.59171 -6.59421 17.1324 0.0 21.4615 0.0 31.6447 -14.9121 -5.92356 0.0 -13.30196 0.0 
  -3.989100036621094 -0.6076670074462891 9.267349853515626 141.098 85.4045 1296.96 3.30938 -20.9305 2.27354 -7.06257 15.715 3.55993 19.3989 56.5878 351.751 -55.8775 -81.1793 -407.466 -116.843 -3.26165 367.568 -45.0512 7.09476 20.0134 0.0 19.8578 0.0 4.47819 -17.5411 -13.1633 0.0 0.0 0.0 0.0 0.0 0.0 121.993 -6.33101 -363.451 47.0613 2.36941 -11.3118 0.0 19.8308 0.0 6.50571 -9.13032 22.1369 0.0 0.0 0.0 0.0 0.0 0.0 -3.46815 -5.46973 -12.2514 0.0 15.8696 0.0 -16.8471 -7.9799004 10.6877 0.0 -15.698118 0.0 3.5377 -6.76168 16.8582 0.0 21.3509 0.0 31.7447 -14.720301 -5.63036 0.0 -13.27452 0.0 
  -3.9852099609375 -0.5982609939575195 9.268159790039062 142.518 85.3255 1295.51 3.43585 -20.8164 2.35025 -7.12602 15.5874 3.46272 19.2513 56.2534 351.887 -56.6901 -81.3298 -408.245 -116.8771 -3.156 367.682 -44.9898 7.10377 19.9492 0.0 19.7526 0.0 4.35154 -17.6331 -13.5052 0.0 0.0 0.0 0.0 0.0 0.0 122.0802 -6.28295 -363.52 47.029 2.41433 -11.0706 0.0 19.6312 0.0 6.63117 -9.18019 22.5715 0.0 0.0 0.0 0.0 0.0 0.0 -3.45762 -5.68302 -12.2887 0.0 15.9212 0.0 -16.8476 -8.003201 10.7576 0.0 -15.697688 0.0 3.47973 -6.90044 16.4218 0.0 21.1548 0.0 31.7156 -14.453699 -5.3626 0.0 -13.32149 0.0 
  -3.9822900390625 -0.5900590133666992 9.268209838867188 143.933 85.1805 1294.12 3.50838 -20.8052 2.38309 -7.21315 15.5239 3.38528 19.1583 55.9366 351.999 -57.1457 -81.492 -408.639 -116.8191 -3.12401 367.778 -44.9816 7.21015 20.0327 0.0 19.6682 0.0 4.30354 -17.6372 -13.6327 0.0 0.0 0.0 0.0 0.0 0.0 122.121 -6.24573 -363.559 47.0896 2.43003 -10.6971 0.0 19.4547 0.0 6.73381 -9.11095 22.9037 0.0 0.0 0.0 0.0 0.0 0.0 -3.47508 -5.95627 -12.3774 0.0 15.9901 0.0 -16.893 -8.0243 10.7861 0.0 -15.735556 0.0 3.47256 -7.12901 16.3695 0.0 21.1246 0.0 31.6994 -14.435101 -5.38012 0.0 -13.38997 0.0 
  -3.9802301025390623 -0.5841619873046875 9.267540283203125 143.673 85.1808 1294.48 3.44989 -20.7166 2.28935 -7.17746 15.5918 3.35125 19.0212 55.5961 352.096 -56.966 -81.5294 -408.452 -116.7908 -3.05188 367.752 -45.0066 7.24042 20.1831 0.0 19.6497 0.0 4.29041 -17.591 -13.6127 0.0 0.0 0.0 0.0 0.0 0.0 122.1249 -6.2506 -363.516 47.0873 2.46305 -10.4743 0.0 19.4543 0.0 6.93328 -9.30531 23.3811 0.0 0.0 0.0 0.0 0.0 0.0 -3.51901 -6.03491 -12.4858 0.0 16.0834 0.0 -16.9333 -8.029699 10.781 0.0 -15.783721 0.0 3.52235 -7.20303 16.7489 0.0 21.3138 0.0 31.6056 -14.688 -5.74619 0.0 -13.42781 0.0 
  -3.9790499877929686 -0.5782160186767578 9.265780029296875 143.137 85.1154 1295.2 3.21644 -20.5937 2.03124 -7.01668 15.5463 3.30649 18.8707 55.2326 352.181 -56.9221 -81.5548 -408.364 -116.8127 -3.05697 367.729 -45.0207 7.26521 20.3521 0.0 19.6818 0.0 4.36796 -17.5651 -13.4297 0.0 0.0 0.0 0.0 0.0 0.0 122.001 -6.23372 -363.434 47.2221 2.33585 -10.0264 0.0 19.4773 0.0 6.94281 -9.25618 23.519 0.0 0.0 0.0 0.0 0.0 0.0 -3.61174 -6.18432 -12.5992 0.0 16.2206 0.0 -17.0366 -8.023001 10.6385 0.0 -15.84352 0.0 3.63802 -7.43512 17.6636 0.0 21.8685 0.0 31.4555 -15.2861 -6.48127 0.0 -13.49098 0.0 
  -3.9776300048828124 -0.5698680114746094 9.265029907226562 142.859 85.0732 1295.35 3.19684 -20.3796 2.07088 -6.9904 15.4312 3.3373 18.6933 55.0809 352.443 -57.7755 -81.7223 -409.223 -116.8467 -3.10382 367.697 -44.9651 7.32755 20.4752 0.0 19.7294 0.0 4.54884 -17.5027 -12.5032 0.0 0.0 0.0 0.0 0.0 0.0 121.9717 -6.26877 -363.413 47.3188 2.35943 -9.54758 0.0 19.3587 0.0 6.87175 -9.08002 23.6331 0.0 0.0 0.0 0.0 0.0 0.0 -3.64427 -6.28965 -12.4842 0.0 16.3241 0.0 -17.2001 -8.0949 10.5223 0.0 -15.93597 0.0 3.61993 -7.67088 17.5969 0.0 22.1952 0.0 31.4363 -15.3477 -6.22411 0.0 -13.571671 0.0 
  -3.9768099975585938 -0.563036994934082 9.263389892578125 143.202 84.9014 1294.96 3.14443 -20.3255 2.06781 -7.01043 15.3004 3.34544 18.7003 54.8598 352.441 -57.5145 -81.7991 -408.904 -116.8041 -3.11944 367.754 -44.9557 7.37354 20.4924 0.0 19.8276 0.0 4.6849 -17.3977 -12.3337 0.0 0.0 0.0 0.0 0.0 0.0 121.9283 -6.35133 -363.451 47.4879 2.34828 -8.81715 0.0 19.4961 0.0 6.74159 -9.23055 23.5121 0.0 0.0 0.0 0.0 0.0 0.0 -3.71163 -6.54951 -12.443 0.0 16.4677 0.0 -17.4422 -8.1712 10.3252 0.0 -15.942359 0.0 3.65211 -8.10577 17.842 0.0 22.7261 0.0 31.1337 -15.584999 -6.39515 0.0 -13.58631 0.0 
  -3.976390075683594 -0.557406997680664 9.261950073242188 143.894 84.6836 1294.24 3.10593 -20.3951 2.07501 -7.03477 15.2833 3.38682 18.6437 54.5835 352.489 -57.1071 -81.8481 -408.525 -116.762 -3.10221 367.839 -44.935 7.45059 20.4877 0.0 19.959 0.0 4.81588 -17.3713 -11.9833 0.0 0.0 0.0 0.0 0.0 0.0 121.8736 -6.4379 -363.332 47.6539 2.32681 -8.31541 0.0 19.4933 0.0 6.65922 -9.25304 23.5742 0.0 0.0 0.0 0.0 0.0 0.0 -3.77138 -6.86562 -12.3377 0.0 16.6144 0.0 -17.6722 -8.2166 10.0866 0.0 -15.912197 0.0 3.6382 -8.57039 17.8073 0.0 23.1706 0.0 31.4485 -15.6528 -6.07089 0.0 -13.82435 0.0 
